<svg class="icon icon-twitter-svg" xmlns="http://www.w3.org/2000/svg" x="0px" y="0px" viewBox="0 0 40 40" enable-background="new 0 0 40 40" width="40" height="40">
<path fill="#D1CECC" d="M20,0C8.96,0,0,8.96,0,20s8.96,20,20,20c10.07,0,18.4-7.45,19.79-17.13c0.13-0.66,0.2-1.34,0.19-2.04
  C39.99,20.55,40,20.28,40,20C40,8.96,31.05,0,20,0z M30.94,15.48c0.01,0.22,0.01,0.45,0.01,0.67c0,6.89-5.25,14.85-14.84,14.85
  c-2.95,0-5.69-0.86-8-2.35c0.41,0.05,0.82,0.07,1.24,0.07c2.44,0,4.69-0.83,6.48-2.23c-2.28-0.04-4.21-1.55-4.88-3.62
  c0.32,0.06,0.65,0.1,0.98,0.1c0.47,0,0.93-0.07,1.37-0.18c-2.39-0.48-4.19-2.59-4.19-5.12c0-0.03,0-0.05,0-0.07
  c0.7,0.39,1.51,0.63,2.37,0.65c-1.4-0.94-2.32-2.53-2.32-4.34c0-0.96,0.26-1.85,0.71-2.63c2.57,3.16,6.42,5.23,10.75,5.45
  c-0.09-0.38-0.13-0.78-0.13-1.19c0-2.88,2.34-5.22,5.22-5.22c1.5,0,2.86,0.63,3.81,1.65c1.19-0.23,2.31-0.67,3.32-1.27
  c-0.39,1.22-1.22,2.24-2.3,2.88c1.06-0.12,2.06-0.4,3-0.82C32.84,13.83,31.96,14.74,30.94,15.48z"/>
</svg>
