<svg class="icon icon-dribbble-svg" xmlns="http://www.w3.org/2000/svg" x="0px" y="0px" viewBox="0 0 40 40" enable-background="new 0 0 40 40" width="40" height="40">
  <path fill="#D1CECC" d="M19.64,20.55c0.53-0.22,1.11-0.37,1.66-0.61c-0.26-0.48-0.5-1.04-0.72-1.48c-0.08-0.16-0.14-0.36-0.29-0.47
    c-3.56,1.03-7.5,1.67-12.1,1.66c-0.09,3.71,1.26,6.3,3.03,8.27C13.28,24.74,16.01,22.07,19.64,20.55z"/>
  <path fill="#D1CECC" d="M22.06,21.96c-4.1,1.48-7.32,3.83-9.32,7.41c1.35,1.06,3.17,1.97,5.31,2.35c2.35,0.41,4.82-0.02,6.57-0.79
    c-0.53-3.03-1.38-5.91-2.35-8.45C22.22,22.3,22.23,22.07,22.06,21.96z"/>
  <path fill="#D1CECC" d="M14.95,9.31c-3.29,1.64-5.6,4.27-6.54,8.27c4.09-0.05,7.73-0.56,10.94-1.48
    C17.96,13.76,16.56,11.43,14.95,9.31z"/>
  <path fill="#D1CECC" d="M20,0C8.95,0,0,8.96,0,20s8.95,20,20,20c10.07,0,18.4-7.44,19.79-17.13c0.14-0.66,0.2-1.34,0.19-2.04
    C39.99,20.55,40,20.28,40,20C40,8.96,31.04,0,20,0z M30.22,29.4c-1.1,1.21-2.41,2.18-3.97,2.96c-1.55,0.78-3.32,1.38-5.42,1.48
    c-4.42,0.22-7.88-1.49-10.19-3.61c-2.37-2.19-4.17-5.12-4.48-9.36C6,18.62,6.45,16.63,7.11,14.95c0.69-1.75,1.51-3.06,2.63-4.3
    c1.58-1.72,3.73-3.23,6.43-3.97c0.97-0.27,1.98-0.44,3-0.51c4.52-0.29,7.87,1.53,10.22,3.65c2.35,2.11,4.2,5.17,4.44,9.39
    C34.1,23.65,32.4,27.03,30.22,29.4z"/>
  <path fill="#D1CECC" d="M24.34,21.38c0.91,2.65,1.75,5.37,2.27,8.42c0.65-0.37,1.23-0.87,1.77-1.41c1.63-1.64,2.84-3.76,3.32-6.5
    C29.67,21.29,26.82,20.99,24.34,21.38z"/>
  <path fill="#D1CECC" d="M21.7,15.42c2.47-1,4.68-2.28,6.14-4.3C25.9,9.49,23.1,8.01,19.53,8.2c-0.86,0.04-1.5,0.11-2.27,0.29
    c1.33,1.95,2.75,3.98,3.9,6.03C21.33,14.82,21.44,15.17,21.7,15.42z"/>
  <path fill="#D1CECC" d="M22.57,17.22c0.28,0.54,0.56,1.15,0.8,1.7c0.08,0.2,0.12,0.44,0.29,0.58c2.75-0.31,5.8-0.08,8.2,0.4
    c-0.09-3.24-1.17-5.5-2.67-7.33C27.46,14.6,25.19,16.09,22.57,17.22z"/>
</svg>
