<svg version="1.1" id="Layer_1" xmlns="http://www.w3.org/2000/svg" xmlns:xlink="http://www.w3.org/1999/xlink" x="0px" y="0px"
	 viewBox="0 0 29 29" style="enable-background:new 0 0 29 29;" xml:space="preserve">
<path d="M9.6,19h2v-6h-2V19z M10.6,10.1c-0.7,0-1.1,0.5-1.1,1c0,0.6,0.4,1,1.1,1h0c0.7,0,1.1-0.5,1.1-1
	C11.8,10.5,11.3,10.1,10.6,10.1 M16.6,12.8c-1.1,0-1.6,0.6-1.8,1v0h0c0,0,0,0,0,0V13h-2c0,0.6,0,6,0,6h2v-3.4c0-0.2,0-0.4,0.1-0.5
	c0.1-0.4,0.5-0.7,1-0.7c0.7,0,1,0.6,1,1.4V19h2v-3.5C19,13.7,18,12.8,16.6,12.8 M21,20.2c0,0.5-0.4,1-1,1H8.6c-0.6,0-1-0.4-1-1V8.8
	c0-0.5,0.4-1,1-1H20c0.5,0,1,0.4,1,1V20.2z M14.3,0.4C6.4,0.4,0,6.7,0,14.5c0,7.8,6.4,14.1,14.3,14.1s14.3-6.3,14.3-14.1
	C28.6,6.7,22.2,0.4,14.3,0.4z"/>
</svg>
