<svg class="icon icon-stackoverflow-svg" version="1.1" xmlns="http://www.w3.org/2000/svg" xmlns:xlink="http://www.w3.org/1999/xlink" x="0px" y="0px"
	 viewBox="0 0 29 29" style="enable-background:new 0 0 29 29;" xml:space="preserve" width="29px" height="29px">
	 <path d="M14.5,0C6.5,0,0,6.5,0,14.5C0,22.5,6.5,29,14.5,29c8,0,14.5-6.5,14.5-14.5C29,6.5,22.5,0,14.5,0z M12.6,8l7.9,4.1l-0.9,1.8
	l-7.9-4.1L12.6,8z M10.6,12.7l8.7,1.7l-0.4,2l-8.7-1.7L10.6,12.7z M10.1,16.8h8.9v2h-8.9V16.8z M22.2,20.1v2h-2.1H8.9H6.7v-2v-4.5
	h2.1v4.5h11.2v-4.5h2.1V20.1z M20.8,11.6l-6.3-6.2l1.4-1.4l6.3,6.2L20.8,11.6z"/>
</svg>
