<svg class="icon icon-github-svg" xmlns="http://www.w3.org/2000/svg" x="0px" y="0px" viewBox="0 0 40 39.01" enable-background="new 0 0 40 39.01" width="40" height="40">
<path fill-rule="evenodd" clip-rule="evenodd" fill="#D1CECC" d="M20,0C8.96,0,0,8.95,0,20c0,8.84,5.73,16.33,13.68,18.98
  c1,0.18,1.37-0.43,1.37-0.96c0-0.47-0.02-1.73-0.03-3.4c-5.56,1.21-6.74-2.68-6.74-2.68c-0.91-2.31-2.22-2.93-2.22-2.93
  c-1.82-1.24,0.14-1.22,0.14-1.22c2.01,0.14,3.06,2.06,3.06,2.06c1.78,3.06,4.68,2.17,5.82,1.66c0.18-1.29,0.7-2.17,1.27-2.67
  c-4.44-0.5-9.11-2.22-9.11-9.88c0-2.18,0.78-3.97,2.06-5.37c-0.21-0.51-0.89-2.54,0.2-5.29c0,0,1.68-0.54,5.5,2.05
  C16.59,9.9,18.3,9.68,20,9.67c1.7,0.01,3.41,0.23,5.01,0.67c3.82-2.59,5.49-2.05,5.49-2.05c1.09,2.75,0.4,4.79,0.2,5.29
  c1.28,1.4,2.06,3.18,2.06,5.37c0,7.68-4.68,9.37-9.13,9.87c0.72,0.62,1.36,1.84,1.36,3.7c0,2.67-0.02,4.83-0.02,5.49
  c0,0.53,0.36,1.16,1.38,0.96C34.27,36.33,40,28.83,40,20C40,8.95,31.04,0,20,0z"/>
</svg>
