<svg width="225px" height="61px" viewBox="0 0 225 61" version="1.1" xmlns="http://www.w3.org/2000/svg" xmlns:xlink="http://www.w3.org/1999/xlink">
    <title>GitHub</title>
    <defs>
        <polygon id="path-1" points="0.0003 0.895 43.6723 0.895 43.6723 60.9997 0.0003 60.9997 0.0003 0.895"></polygon>
        <polygon id="path-3" points="37.401 0.0725 37.401 57.9405 0.4571 57.9405 0.4571 0.0725 37.401 0.0725"></polygon>
    </defs>
    <g id="Page-1" stroke="none" stroke-width="1" fill="none" fill-rule="evenodd">
        <g id="Artboard-Copy" transform="translate(-165.000000, -131.000000)">
            <g id="Page-1" transform="translate(165.000000, 130.000000)">
                <g id="Group-3" transform="translate(0.000000, 0.104900)">
                    <mask id="mask-2" fill="white">
                        <use xlink:href="#path-1"></use>
                    </mask>
                    <g id="Clip-2"></g>
                    <path d="M42.8013,26.6167 L24.1263,26.6167 C23.6443,26.6167 23.2543,27.0077 23.2543,27.4897 L23.2543,36.6207 C23.2543,37.1007 23.6443,37.4917 24.1263,37.4917 L31.4123,37.4917 L31.4123,48.8387 C31.4123,48.8387 29.7763,49.3937 25.2543,49.3937 C19.9183,49.3937 12.4653,47.4427 12.4653,31.0557 C12.4653,14.6637 20.2273,12.5077 27.5123,12.5077 C33.8193,12.5077 36.5363,13.6167 38.2653,14.1517 C38.8093,14.3187 39.3093,13.7777 39.3093,13.2957 L41.3943,4.4747 C41.3943,4.2487 41.3183,3.9777 41.0613,3.7927 C40.3593,3.2927 36.0743,0.8947 25.2543,0.8947 C12.7873,0.8947 0.0003,6.1987 0.0003,31.6947 C0.0003,57.2027 14.6413,60.9997 26.9783,60.9997 C37.1953,60.9997 43.3893,56.6377 43.3893,56.6377 C43.6463,56.4957 43.6723,56.1387 43.6723,55.9787 L43.6723,27.4897 C43.6723,27.0077 43.2813,26.6167 42.8013,26.6167" id="Fill-1" fill="#FFFFFF" mask="url(#mask-2)"></path>
                </g>
                <path d="M139.8013,4.0546 C139.8013,3.5706 139.4163,3.1776 138.9323,3.1776 L128.4193,3.1776 C127.9393,3.1776 127.5483,3.5706 127.5483,4.0546 C127.5483,4.0556 127.5513,24.3746 127.5513,24.3746 L111.1623,24.3746 L111.1623,4.0546 C111.1623,3.5706 110.7743,3.1776 110.2933,3.1776 L99.7803,3.1776 C99.3023,3.1776 98.9113,3.5706 98.9113,4.0546 L98.9113,59.0876 C98.9113,59.5716 99.3023,59.9666 99.7803,59.9666 L110.2933,59.9666 C110.7743,59.9666 111.1623,59.5716 111.1623,59.0876 L111.1623,35.5416 L127.5513,35.5416 C127.5513,35.5416 127.5223,59.0836 127.5223,59.0876 C127.5223,59.5716 127.9133,59.9666 128.3933,59.9666 L138.9323,59.9666 C139.4143,59.9666 139.7993,59.5716 139.8013,59.0876 L139.8013,4.0546 Z" id="Fill-4" fill="#FFFFFF"></path>
                <path d="M63.0229,11.2729 C63.0229,7.4889 59.9889,4.4309 56.2439,4.4309 C52.5029,4.4309 49.4649,7.4889 49.4649,11.2729 C49.4649,15.0569 52.5029,18.1259 56.2439,18.1259 C59.9889,18.1259 63.0229,15.0569 63.0229,11.2729" id="Fill-6" fill="#FFFFFF"></path>
                <path d="M62.271,47.4692 L62.271,22.0722 C62.271,21.5882 61.884,21.1942 61.402,21.1942 L50.92,21.1942 C50.44,21.1942 50.008,21.6892 50.008,22.1732 L50.008,58.5702 C50.008,59.6382 50.675,59.9542 51.539,59.9542 L60.983,59.9542 C62.018,59.9542 62.271,59.4482 62.271,58.5512 L62.271,47.4692 Z" id="Fill-8" fill="#FFFFFF"></path>
                <path d="M180.6035,21.2773 L170.1705,21.2773 C169.6925,21.2773 169.3015,21.6723 169.3015,22.1573 L169.3015,49.1333 C169.3015,49.1333 166.6505,51.0723 162.8895,51.0723 C159.1255,51.0723 158.1295,49.3673 158.1295,45.6823 L158.1295,22.1573 C158.1295,21.6723 157.7385,21.2773 157.2585,21.2773 L146.6715,21.2773 C146.1925,21.2773 145.8045,21.6723 145.8045,22.1573 L145.8045,47.4653 C145.8045,58.4173 151.8995,61.0943 160.2895,61.0943 C167.1705,61.0943 172.7185,57.2933 172.7185,57.2933 C172.7185,57.2933 172.9855,59.2963 173.1025,59.5343 C173.2235,59.7733 173.5345,60.0073 173.8735,60.0073 L180.6075,59.9773 C181.0875,59.9773 181.4785,59.5863 181.4785,59.1033 L181.4745,22.1573 C181.4745,21.6723 181.0835,21.2773 180.6035,21.2773" id="Fill-10" fill="#FFFFFF"></path>
                <g id="Group-14" transform="translate(187.000000, 3.104900)">
                    <mask id="mask-4" fill="white">
                        <use xlink:href="#path-3"></use>
                    </mask>
                    <g id="Clip-13"></g>
                    <path d="M18.5791,47.9385 C14.9601,47.8265 12.5051,46.1845 12.5051,46.1845 L12.5051,28.7615 C12.5051,28.7615 14.9251,27.2765 17.8981,27.0115 C21.6561,26.6735 25.2761,27.8085 25.2761,36.7735 C25.2761,46.2255 23.6421,48.0865 18.5791,47.9385 M22.6921,16.9385 C16.7661,16.9385 12.7381,19.5815 12.7381,19.5815 L12.7381,0.9495 C12.7381,0.4655 12.3491,0.0725 11.8711,0.0725 L1.3241,0.0725 C0.8441,0.0725 0.4571,0.4655 0.4571,0.9495 L0.4571,55.9825 C0.4571,56.4665 0.8441,56.8615 1.3261,56.8615 L8.6431,56.8615 C8.9711,56.8615 9.2201,56.6905 9.4061,56.3925 C9.5891,56.0975 9.8491,53.8575 9.8491,53.8575 C9.8491,53.8575 14.1601,57.9405 22.3241,57.9405 C31.9061,57.9405 37.4011,53.0795 37.4011,36.1115 C37.4011,19.1535 28.6221,16.9385 22.6921,16.9385" id="Fill-12" fill="#FFFFFF" mask="url(#mask-4)"></path>
                </g>
                <path d="M92.2998,21.1899 L84.4138,21.1899 C84.4138,21.1899 84.4028,10.7719 84.4028,10.7699 C84.4028,10.3759 84.1978,10.1779 83.7418,10.1779 L72.9938,10.1779 C72.5748,10.1779 72.3518,10.3629 72.3518,10.7649 L72.3518,21.5309 C72.3518,21.5309 66.9658,22.8319 66.6008,22.9359 C66.2388,23.0419 65.9708,23.3749 65.9708,23.7769 L65.9708,30.5419 C65.9708,31.0289 66.3608,31.4199 66.8418,31.4199 L72.3518,31.4199 L72.3518,47.6969 C72.3518,59.7979 80.8318,60.9859 86.5538,60.9859 C89.1708,60.9859 92.2988,60.1449 92.8158,59.9549 C93.1268,59.8429 93.3068,59.5189 93.3068,59.1659 L93.3178,51.7129 C93.3178,51.2289 92.9088,50.8349 92.4458,50.8349 C91.9858,50.8349 90.8088,51.0239 89.5988,51.0239 C85.7238,51.0239 84.4138,49.2219 84.4138,46.8879 C84.4138,44.5619 84.4118,31.4199 84.4118,31.4199 L92.2998,31.4199 C92.7798,31.4199 93.1698,31.0289 93.1698,30.5419 L93.1698,22.0659 C93.1698,21.5809 92.7798,21.1899 92.2998,21.1899" id="Fill-15" fill="#FFFFFF"></path>
            </g>
        </g>
    </g>
</svg>
